<?xml version="1.0" encoding="iso-8859-1"?>
<!-- Uploaded to: SVG Repo, www.svgrepo.com, Generator: SVG Repo Mixer Tools -->
<!DOCTYPE svg PUBLIC "-//W3C//DTD SVG 1.1//EN" "http://www.w3.org/Graphics/SVG/1.1/DTD/svg11.dtd">
<svg fill="#000000" version="1.1" id="Capa_1" xmlns="http://www.w3.org/2000/svg" xmlns:xlink="http://www.w3.org/1999/xlink" 
	 width="800px" height="800px" viewBox="0 0 113.432 113.432"
	 xml:space="preserve">
<g>
	<path d="M113.432,11.162c0-1.097-0.654-2.078-1.666-2.5c-1.019-0.411-2.162-0.19-2.943,0.58L89.195,28.775
		c-1.023,1.018-1.065,2.663-0.09,3.728c0.907,1.002,1.978,2.605,1.978,4.678c0,4.699-5.553,8.659-12.15,8.659
		c-6.691,0-12.149-3.892-12.149-8.659c0-3.386,2.837-6.481,7.219-7.905c0.896-0.295,1.582-1.023,1.804-1.93
		c0.222-0.917-0.058-1.883-0.723-2.547L58.622,8.34c-1.047-1.055-2.766-1.055-3.817,0L38.351,24.799
		c-0.665,0.664-0.947,1.629-0.725,2.547c0.222,0.907,0.902,1.65,1.798,1.93c4.385,1.424,7.219,4.519,7.219,7.905
		c0,4.699-5.561,8.659-12.15,8.659c-6.689,0-12.15-3.892-12.15-8.659c0-2.072,1.07-3.676,1.967-4.656
		c0.983-1.06,0.938-2.711-0.087-3.729L4.617,9.242c-0.778-0.775-1.938-0.997-2.943-0.58C0.659,9.079,0,10.064,0,11.162V90.69
		c0,0.211,0.074,0.4,0.119,0.596C0.087,91.486,0,91.666,0,91.872c0,11.058,35.646,14.011,56.705,14.011
		c21.057,0,56.695-2.953,56.695-14.011c0-0.206-0.096-0.386-0.116-0.586c0.053-0.195,0.116-0.385,0.116-0.596V11.162H113.432z
		 M11.367,50.101c0-0.907,0.572-1.719,1.442-2.035c0.846-0.306,1.825-0.032,2.397,0.675c4.39,5.379,11.433,8.453,19.312,8.453
		c1.191,0,2.154,0.976,2.154,2.151c0,1.197-0.978,2.162-2.154,2.162c-7.172,0-13.793-2.235-18.826-6.265v11.412
		c0,1.191-0.971,2.162-2.154,2.162c-1.182,0-2.154-0.976-2.154-2.162V50.096h-0.016V50.101z M56.731,100.483
		c-31.978,0-50.403-5.643-51.311-8.554c0.892-3.027,19.301-8.659,51.311-8.659s50.409,5.643,51.3,8.559
		C107.125,94.846,88.71,100.483,56.731,100.483z"/>
</g>
</svg>