<svg xmlns="http://www.w3.org/2000/svg" xmlns:xlink="http://www.w3.org/1999/xlink" version="1.1" x="0px" y="0px" viewBox="0 0 110 137.5" enable-background="new 0 0 110 110" xml:space="preserve"><g><path d="M95.339,59.613c1.979,0.5,3.954,0.998,3.954,0.998s-1.822-0.824-3.651-1.651c-1.828-0.852-3.643-1.617-3.53-1.932   c-0.01,0.042-0.04,0.115-0.07,0.188c0.15-0.383,0.268-0.752,0.327-1.084c0.076-0.292,0.092-0.534,0.103-0.711l0.028-0.383L92,55   l0.499-0.037l-0.028-0.383c-0.011-0.177-0.026-0.42-0.094-0.675c-0.129-0.702-0.456-1.511-0.913-2.306   c1.018-0.416,1.963-0.765,2.526-0.968c-0.568,0.199-1.533,0.525-2.6,0.84c-0.037-0.062-0.068-0.125-0.107-0.187   c-0.544-0.895-1.279-1.837-2.058-2.834l-0.203-0.26c-0.079-0.103-0.161-0.214-0.241-0.32c-0.197-0.274,1.267-1.654,2.81-2.921   c1.544-1.276,3.15-2.468,3.15-2.468s-1.667,1.114-3.372,2.159c-1.682,1.031-3.466,1.921-3.676,1.672   c-0.1-0.16-0.194-0.323-0.285-0.488c0.086-0.345,0.166-0.689,0.235-1.034c0.224-1.075,0.411-2.336,0.159-3.545   c0.048,0.239,0.097,0.516,0.091,0.64c-0.013-0.357,1.838-1.208,3.652-2.106c1.824-0.87,3.642-1.736,3.642-1.736   s-1.933,0.51-3.872,1.022c-1.931,0.482-3.842,1.033-4.045,0.738c-0.216-0.37-0.473-0.696-0.74-0.982   c0.015-0.738,0.018-1.451-0.027-2.091c0.004,0.06,0.008,0.115,0.008,0.151c-0.016-0.335,1.92-1.069,3.81-1.86   c1.897-0.763,3.79-1.524,3.79-1.524s-1.958,0.408-3.922,0.816c-1.981,0.391-3.904,0.842-3.985,0.518   c0.02,0.053,0.04,0.146,0.063,0.254c-0.102-0.429-0.228-0.822-0.38-1.149c-0.201-0.462-0.404-0.76-0.518-0.926L85,33.213   l0.331-0.269c-0.965-1.279-2.401-1.984-3.797-2.484c0.967-0.858,1.925-1.639,2.429-2.042c-0.521,0.41-1.548,1.2-2.652,1.962   c-0.445-0.154-0.885-0.29-1.3-0.417c-0.329-0.101-0.66-0.196-0.992-0.292c-0.298-0.086-0.598-0.175-0.896-0.266   c-0.324-0.104,0.067-2.082,0.585-4.011c0.514-1.936,1.127-3.839,1.127-3.839s-0.697,1.878-1.481,3.718   c-0.768,1.809-1.698,3.565-2.019,3.494c-0.158-0.066-0.317-0.13-0.472-0.204c-0.311-0.77-0.676-1.633-1.169-2.448   c-0.601-0.994-1.31-1.729-2.111-2.189c-0.383-0.213-0.784-0.357-1.19-0.461c0.153,0.043,0.295,0.091,0.371,0.108   c-0.338-0.114,0.13-2.037,0.544-3.989c0.355-1.554,0.707-3.088,0.839-3.666c0.489-0.789,0.835-1.346,0.835-1.346   s-1.338,1.488-2.68,2.981c-1.366,1.487-2.646,2.984-2.906,2.775c0.044,0.026,0.11,0.084,0.182,0.149   c-0.566-0.476-1.2-0.879-1.934-1.131l-0.016-0.006l-0.175,0.49l-0.038-0.063l0.078-0.463c-0.148-0.044-0.496-0.146-0.99-0.19   c-0.781-0.091-1.787,0.012-2.824,0.285c-0.697,0.175-1.456,0.434-2.242,0.711c0.104-0.226,0.212-0.453,0.322-0.68   c0.863-1.812,1.824-3.567,1.824-3.567s-1.035,1.712-2.173,3.364c-0.281,0.412-0.57,0.816-0.852,1.191l-0.509,0.181   c-0.124,0.043-0.253,0.084-0.379,0.127c-0.326,0.094-1.156-1.736-1.858-3.6c-0.71-1.873-1.32-3.776-1.32-3.776   s0.54,1.925,0.965,3.881c0.431,1.931,0.698,3.925,0.386,4.023c-0.19,0.043-0.382,0.082-0.574,0.115   c-0.297-0.186-0.593-0.378-0.895-0.551c-1.177-0.689-2.744-1.454-4.454-1.289c-0.536,0.071-1.068,0.243-1.602,0.494   c-0.663-0.23-1.304-0.442-1.9-0.597c0.025,0.007,0.065,0.017,0.083,0.021c-0.324-0.087-0.416-2.16-0.577-4.203   c-0.132-2.042-0.264-4.077-0.264-4.077s-0.224,1.986-0.448,3.978c-0.195,1.576-0.344,3.116-0.56,3.695   c-0.204-0.25-0.412-0.505-0.623-0.762c-1.25-1.564-2.497-3.124-2.497-3.124s0.955,1.81,1.913,3.626   c0.09,0.175,0.18,0.348,0.27,0.521c-0.067,0.005-0.141,0.003-0.204,0.01c-0.506,0.045-0.854,0.147-1.045,0.203l0.088,0.446   l-0.172-0.425c-2.105,0.725-3.424,2.615-4.484,4.133c-0.205,0.293-0.406,0.592-0.607,0.891c-0.163,0.242-0.329,0.484-0.496,0.725   c-0.086,0.121-0.481-0.005-1.03-0.268c-0.131-0.569-0.268-1.195-0.412-1.829c-0.41-1.979-0.818-3.952-0.818-3.952   s0.067,2,0.081,4.01c0.001,0.394,0.005,0.782,0.008,1.159c-0.47-0.272-0.972-0.579-1.47-0.9c-1.688-1.08-3.313-2.244-3.313-2.244   s1.574,1.24,3.088,2.547c0.621,0.534,1.219,1.09,1.701,1.582c-0.003,1.08-0.051,1.87-0.272,1.895   c0.09-0.012,0.274-0.028,0.468-0.044c-0.414,0.035-0.83,0.077-1.241,0.139c-1.598,0.22-2.808,0.71-3.708,1.506   c-0.42,0.391-0.74,0.835-1.002,1.313c-0.588,0.18-1.218,0.379-1.847,0.625c-0.317,0.112-1.611-1.495-2.946-3.044   c-1.313-1.568-2.623-3.131-2.623-3.131s0.995,1.736,1.992,3.477c0.985,1.763,2.009,3.449,1.727,3.629   c0.045-0.037,0.131-0.088,0.23-0.145c-0.647,0.395-1.241,0.88-1.713,1.507l-0.003,0.004l0.403,0.324l-0.066,0.017l-0.418-0.218   c-0.087,0.127-0.292,0.425-0.489,0.879c-0.076,0.163-0.144,0.343-0.207,0.532c-1.744-0.142-3.298-0.328-3.298-0.328   s1.509,0.293,3.195,0.684c-0.157,0.565-0.267,1.203-0.31,1.882c-0.07,0.951-0.039,2.026-0.007,3.165l0.018,0.662   c0.003,0.134,0.002,0.267,0.004,0.4c-0.011,0.338-2.007,0.569-3.995,0.667c-1.178,0.061-2.345,0.085-3.114,0.095   c-0.993-0.487-1.716-0.842-1.716-0.842s0.463,0.347,1.133,0.848c-0.187,0.001-0.302,0.001-0.302,0.001s0.121,0.005,0.324,0.015   c0.583,0.436,1.315,0.985,2.056,1.54c1.58,1.213,3.217,2.372,3,2.655c0.025-0.035,0.074-0.1,0.119-0.162   c-0.451,0.633-0.825,1.35-1.003,2.168c-0.102,0.54-0.103,1.072-0.047,1.591c-0.426,0.561-0.818,1.104-1.147,1.628   c-0.19,0.278-2.169-0.261-4.16-0.735c-1.98-0.5-3.954-0.998-3.954-0.998s1.823,0.824,3.651,1.651   c1.828,0.852,3.642,1.617,3.53,1.932c0.01-0.04,0.04-0.11,0.067-0.178c-0.148,0.379-0.264,0.745-0.323,1.073   c-0.077,0.291-0.092,0.532-0.103,0.709l-0.028,0.387L18,55l-0.499,0.037l0.028,0.387c0.011,0.177,0.026,0.418,0.094,0.67   c0.127,0.7,0.455,1.509,0.914,2.309c-0.999,0.407-1.929,0.752-2.496,0.956c0.573-0.2,1.522-0.521,2.568-0.828   c0.037,0.062,0.068,0.125,0.107,0.187c0.547,0.899,1.287,1.847,2.069,2.85l0.191,0.244c0.079,0.104,0.161,0.214,0.242,0.32   c0.198,0.275-1.266,1.654-2.809,2.922c-1.544,1.276-3.15,2.468-3.15,2.468s1.667-1.115,3.372-2.159   c1.682-1.031,3.466-1.922,3.676-1.672c0.101,0.162,0.198,0.327,0.29,0.496c-0.058,0.232-0.12,0.464-0.172,0.697   c-0.168,0.744-0.36,1.729-0.351,2.746c0.001,0.234,0.021,0.462,0.047,0.686c-0.01-0.079-0.017-0.15-0.015-0.197   c0.014,0.357-1.837,1.207-3.652,2.106c-1.823,0.869-3.641,1.736-3.641,1.736s1.933-0.511,3.872-1.022   c1.939-0.483,3.86-1.039,4.05-0.735c-0.027-0.06-0.088-0.161-0.152-0.277c0.085,0.175,0.174,0.348,0.28,0.507   c0.183,0.274,0.39,0.519,0.607,0.751c-0.015,0.738-0.018,1.451,0.028,2.093c-0.005-0.062-0.008-0.117-0.008-0.154   c0.016,0.335-1.92,1.069-3.81,1.859c-1.897,0.764-3.79,1.524-3.79,1.524s1.958-0.408,3.921-0.816   c1.982-0.391,3.905-0.843,3.986-0.518c-0.02-0.053-0.04-0.145-0.062-0.251c0.102,0.428,0.227,0.819,0.379,1.146   c0.201,0.462,0.404,0.76,0.518,0.926l0.359-0.2l-0.321,0.264c0.965,1.279,2.4,1.984,3.796,2.485   c-0.96,0.853-1.913,1.629-2.419,2.034c0.524-0.412,1.544-1.196,2.643-1.954c0.445,0.153,0.885,0.29,1.3,0.417   c0.327,0.1,0.656,0.194,0.986,0.29c0.299,0.086,0.601,0.176,0.901,0.267c0.325,0.101-0.067,2.08-0.584,4.011   c-0.514,1.937-1.127,3.84-1.127,3.84s0.697-1.878,1.481-3.718c0.767-1.808,1.697-3.563,2.019-3.494   c0.157,0.065,0.314,0.13,0.467,0.202c0.207,0.513,0.456,1.099,0.781,1.744c0.349,0.686,0.696,1.222,1.084,1.678   c0.518,0.638,1.159,1.131,1.848,1.421c0.173,0.075,0.351,0.137,0.529,0.192c-0.048-0.017-0.107-0.037-0.139-0.044   c0.338,0.114-0.129,2.036-0.543,3.989c-0.355,1.553-0.706,3.086-0.838,3.664c-0.49,0.79-0.836,1.348-0.836,1.348   s1.337-1.488,2.679-2.981c1.366-1.487,2.646-2.984,2.906-2.774c-0.049-0.029-0.123-0.094-0.206-0.17   c0.575,0.487,1.222,0.899,1.971,1.157l0.016,0.006l0.166-0.486l0.034,0.053l-0.078,0.465c0.148,0.044,0.496,0.146,0.991,0.19   c0.783,0.086,1.787-0.013,2.824-0.284c0.698-0.176,1.456-0.435,2.241-0.711c-0.104,0.225-0.211,0.452-0.321,0.678   c-0.863,1.813-1.824,3.567-1.824,3.567s1.035-1.712,2.173-3.364c0.28-0.411,0.569-0.815,0.85-1.189l0.51-0.181   c0.125-0.043,0.253-0.084,0.379-0.127c0.325-0.092,1.155,1.736,1.857,3.599c0.71,1.873,1.32,3.777,1.32,3.777   s-0.54-1.926-0.966-3.882c-0.431-1.934-0.699-3.929-0.385-4.024c0.188-0.042,0.376-0.08,0.566-0.112l0.343,0.434L54.245,89   c0.001,0,0.002,0,0.004,0l-0.174,0.072c1.179,0.703,2.754,1.535,4.495,1.535c0.167,0,0.337-0.063,0.507-0.082   c0.528-0.064,1.065-0.265,1.606-0.521c0.663,0.23,1.304,0.429,1.898,0.582c-0.025-0.006-0.064-0.022-0.083-0.027   c0.324,0.088,0.416,2.158,0.577,4.2c0.132,2.041,0.264,4.075,0.264,4.075s0.225-1.987,0.449-3.979   c0.194-1.578,0.344-3.12,0.56-3.698c0.204,0.251,0.412,0.505,0.623,0.762c1.251,1.565,2.497,3.125,2.497,3.125   s-0.955-1.811-1.913-3.626c-0.089-0.174-0.18-0.347-0.27-0.52c0.066-0.005,0.14-0.004,0.203-0.011   c0.51-0.045,0.857-0.147,1.047-0.204l-0.099-0.487l-0.276,0.416l0.28-0.429l0.177,0.48c2.104-0.726,3.424-2.615,4.484-4.134   c0.204-0.293,0.405-0.592,0.607-0.891c0.163-0.241,0.329-0.483,0.496-0.726c0.086-0.121,0.481,0.006,1.029,0.268   c0.131,0.568,0.268,1.195,0.412,1.828c0.41,1.979,0.818,3.952,0.818,3.952s-0.066-2-0.08-4.01   c-0.001-0.394-0.005-0.781-0.009-1.158c0.471,0.272,0.973,0.579,1.471,0.9c1.688,1.08,3.313,2.244,3.313,2.244   s-1.574-1.24-3.088-2.547c-0.621-0.534-1.219-1.09-1.701-1.581c0.004-1.074,0.052-1.858,0.269-1.893   c0.692-0.071,1.386-0.176,2.068-0.357l-0.129-0.483l0.131,0.482c0.976-0.264,2.306-0.834,3.091-2.034   c0.117-0.165,0.207-0.343,0.305-0.518c0.594-0.182,1.231-0.383,1.867-0.632c0.316-0.113,1.61,1.495,2.947,3.045   c1.313,1.567,2.623,3.131,2.623,3.131s-0.995-1.735-1.992-3.477c-0.985-1.763-2.009-3.449-1.727-3.629   c-0.047,0.039-0.14,0.093-0.245,0.152c0.656-0.398,1.26-0.892,1.741-1.53l0.004-0.005l-0.406-0.311l0.057-0.014l0.418,0.217   c0.087-0.127,0.29-0.425,0.487-0.878c0.075-0.163,0.144-0.344,0.207-0.531c1.744,0.142,3.3,0.328,3.3,0.328   s-1.51-0.294-3.196-0.685c0.157-0.566,0.269-1.204,0.312-1.883c0.069-0.96,0.038-2.047,0.005-3.197l-0.018-0.628   c-0.003-0.134-0.002-0.267-0.004-0.399c0.007-0.34,2.006-0.569,3.995-0.668c1.179-0.061,2.346-0.085,3.115-0.096   c0.993,0.488,1.716,0.687,1.716,0.687S94.849,69,94.179,68c0.187,0,0.302,0,0.302,0s-0.121,0.151-0.323,0.142   c-0.583-0.437-1.315-0.906-2.056-1.461c-1.58-1.214-3.218-2.333-3.001-2.616c-0.012,0.017-0.038,0.071-0.055,0.094   c0.426-0.614,0.769-1.288,0.936-2.057L89.493,62l0.491,0.096c0.102-0.541,0.109-1.075,0.053-1.599   c0.425-0.559,0.814-1.1,1.143-1.621C91.372,58.6,93.35,59.14,95.339,59.613z M91.385,58.54c0.009-0.015,0.017-0.029,0.025-0.044   C91.401,58.511,91.393,58.525,91.385,58.54z M91.73,57.91c0.043-0.087,0.082-0.172,0.121-0.258   C91.807,57.757,91.763,57.847,91.73,57.91z M90.392,51.75c-0.015-0.024-0.027-0.044-0.04-0.065   c0.014,0.021,0.029,0.043,0.042,0.065C90.393,51.749,90.393,51.75,90.392,51.75z M90.268,51.555   c-0.001-0.001-0.002-0.003-0.003-0.004c0.04,0.06-0.025,0.157-0.146,0.272c-1.703,0.438-3.303,0.647-3.443,0.361   c-0.069-0.262-0.139-0.523-0.174-0.791c-0.117-1.415,0.194-2.783,0.562-4.208c0.378,0.573,0.783,1.11,1.169,1.614l0.206,0.264   C89.123,49.943,89.767,50.775,90.268,51.555z M87.038,64.965c0.485-1.165,1.263-2.211,1.973-3.137   c-0.004,0.026-0.003,0.052-0.008,0.078C88.734,63.126,87.922,64.12,87.038,64.965z M88.383,65.009   c-0.032,0.04-0.127,0.15-0.251,0.274C88.217,65.193,88.3,65.102,88.383,65.009z M85.489,69.506l0.018,0.633   c0.029,1.009,0.048,1.951,0.005,2.798c-0.047,0.305-1.795,0.101-3.639-0.336c0.17-0.686,0.388-1.348,0.715-1.971   c0.709-1.205,1.826-2.137,2.922-3.032C85.478,68.24,85.476,68.882,85.489,69.506z M81.634,73.729   c-0.034,0.207-0.092,0.555-0.126,0.762C81.547,74.234,81.59,73.98,81.634,73.729z M88.424,60.954l-0.194,0.25   c-0.146,0.191-0.298,0.394-0.448,0.594c0.086-0.115,0.163-0.22,0.204-0.275c-0.204,0.263-1.958-0.721-3.7-1.728   c-0.037-0.021-0.074-0.044-0.111-0.065c0.128-0.011,0.254-0.021,0.382-0.031c2.111-0.175,4.271-0.102,4.358,0.246   c-0.025-0.102-0.083-0.333-0.134-0.54c-0.068-0.201-0.127-0.378-0.127-0.378s-0.055-0.192-0.146-0.399   c-0.086-0.208-0.183-0.441-0.224-0.54c0.141,0.33-1.783,0.981-3.805,1.385c-0.187,0.039-0.372,0.075-0.557,0.11   c-1.604-0.94-3.077-1.856-3.077-1.856s1.146,0.901,2.435,1.978c-0.953,0.172-1.806,0.301-2.335,0.376   c0.546-0.072,1.438-0.183,2.45-0.28c0.184,0.154,0.369,0.311,0.555,0.469c1.532,1.311,3.055,2.611,2.876,2.905   c0.113-0.194,0.548-0.825,0.548-0.824c0,0,0.067-0.091,0.158-0.214c-0.629,0.865-1.239,1.82-1.615,2.916   c-0.115,0.373-0.2,0.751-0.265,1.132c-0.216,0.181-0.433,0.36-0.652,0.539c-0.567,0.463-1.142,0.937-1.68,1.454   c0.169-0.163,0.34-0.323,0.422-0.391c-0.262,0.227-1.826-1.032-3.488-2.207C78.624,64.384,77,63.193,77,63.193   s1.357,1.476,2.718,2.955c1.335,1.496,2.727,2.944,2.511,3.228c0.076-0.091,0.232-0.31,0.396-0.484   c0.163-0.176,0.306-0.329,0.306-0.329s0.111-0.12,0.259-0.262c-0.554,0.546-1.063,1.145-1.474,1.843   c-0.375,0.713-0.621,1.46-0.811,2.218c-1.148-0.298-2.208-0.615-2.822-0.806c0.609,0.194,1.655,0.539,2.779,0.952   c-0.197,0.83-0.323,1.673-0.445,2.501c-0.096,0.647-0.19,1.295-0.321,1.933c-0.148,0.747-0.339,1.516-0.669,2.226   c-0.131,0.039-0.262,0.077-0.394,0.116c-0.475-0.156-1.431-0.783-2.458-1.588c-0.243-0.503-0.497-1.055-0.751-1.614   c-0.825-1.834-1.595-3.686-1.595-3.686s0.549,1.928,1.043,3.877c0.036,0.147,0.072,0.292,0.108,0.438   c-1.025-0.877-1.966-1.751-2.486-2.245c0.556,0.537,1.577,1.541,2.579,2.619c0.404,1.649,0.724,3.104,0.456,3.222   c0.079-0.037,0.24-0.101,0.406-0.163c-0.775,0.299-1.531,0.663-2.235,1.156c-0.295,0.223-0.563,0.469-0.822,0.722   c-0.172,0.011-0.343,0.022-0.518,0.032c-1.66,0.095-3.376,0.193-5.024,0.88l0.007-0.004l0.406-0.159   c-0.15,0.059-0.429-0.23-0.803-0.707c-0.665-0.849-1.667-2.312-2.533-3.543c-0.859-1.236-1.565-2.251-1.565-2.251   s0.813,1.84,1.629,3.687c0.792,1.864,1.642,3.687,1.366,3.913c0.076-0.07,0.252-0.194,0.427-0.313   c-0.313,0.215-0.611,0.45-0.898,0.695c-0.747-0.918-1.41-1.798-1.789-2.311c0.374,0.515,1.013,1.412,1.675,2.41   c-0.575,0.502-1.11,1.047-1.635,1.585c-0.232,0.239-0.465,0.479-0.703,0.715c-0.585,0.59-1.273,1.267-2.037,1.817   c-0.225,0.162-0.447,0.301-0.668,0.426c-0.157-0.056-0.306-0.105-0.467-0.163l-0.771-0.273c-0.209-0.072-0.425-0.143-0.638-0.213   c0.107,0.034,0.201,0.064,0.256,0.082c-0.313-0.11,0.049-2.086,0.442-4.061c0.398-1.972,0.845-3.926,0.845-3.926   s-0.68,1.886-1.411,3.759c-0.419,1.061-0.834,2.102-1.178,2.805c-0.021-0.604-0.024-1.258-0.001-1.914   c0.041-1.489,0.156-2.942,0.226-3.723c-0.076,0.778-0.23,2.221-0.455,3.655c-0.153,1.041-0.367,2.063-0.583,2.813   c-0.611-0.13-1.236-0.226-1.886-0.234c-0.359,0.005-0.711,0.038-1.059,0.085l-0.617-0.387c-0.556-0.354-1.249-0.793-2.098-1.238   c-0.94-0.508-2.652-1.088-4.328-1.013C46.675,84.95,47,84.965,46,84.98c0-0.001,0-0.003,0-0.004c1-0.007,0.405-0.014,0.453-0.018   c-0.073,0.006-0.033-0.089-0.114-0.231c-0.064-1.086-0.03-2.077-0.04-2.672c0.004,0.545,0.033,1.425,0.007,2.418   c-0.287-0.696-0.592-2.052-0.905-3.418c-0.433-1.962-0.801-3.931-0.801-3.931s0.136,1.999,0.205,4.006   c0.06,2.006,0.112,4.026-0.246,4.079c0.117-0.021,0.397-0.06,0.635-0.093c-0.476,0.067-0.95,0.144-1.417,0.222   c-0.422,0.07-0.846,0.142-1.272,0.204c-0.95,0.14-1.993,0.26-2.97,0.146c-0.139-0.203-0.277-0.405-0.416-0.609   c-0.181-0.269-0.366-0.538-0.552-0.807c0.019,0.026,0.038,0.053,0.05,0.07c-0.187-0.275,1.284-1.645,2.776-2.995   c1.495-1.346,3.023-2.643,3.023-2.643c0,0-1.664,1.114-3.373,2.177c-1.715,1.06-3.418,2.109-3.643,1.854   c0.053,0.058,0.146,0.172,0.244,0.294c-0.336-0.415-0.711-0.804-1.11-1.173c0.573-0.593,1.44-1.345,2.357-2.029   c1.125-0.855,2.27-1.631,2.888-2.04c-0.62,0.402-1.781,1.141-2.985,1.821c-1.258,0.726-2.552,1.321-3.239,1.482   c-0.208-0.132-0.416-0.264-0.631-0.377c-0.022-0.057-0.052-0.127-0.074-0.182l-0.544-1.371l-0.464,0.185l0.463-0.188   c-0.475-1.172-1.037-2.395-1.94-3.418c-0.558-0.591-1.196-1.064-1.867-1.477c0.633-0.99,1.257-1.89,1.627-2.412   c-0.374,0.519-1.023,1.401-1.76,2.337c-0.621-0.371-1.266-0.699-1.903-1.018l-0.494-0.25c0.178,0.089,0.355,0.178,0.438,0.219   c-0.333-0.165,0.325-2.073,1.214-3.864c0.194-0.402,0.394-0.799,0.589-1.176c1.296-0.128,2.305-0.212,2.305-0.212   s-0.928-0.033-2.146-0.094c0.61-1.163,1.126-2.054,1.126-2.054s-0.528,0.911-1.24,2.048c-0.549-0.027-1.146-0.059-1.751-0.097   c-2.013-0.134-4.005-0.269-4.042-0.607c0.032,0.22,0.055,0.986,0.055,0.986s0.001,0.129,0.003,0.297   c-0.01-1.122-0.101-2.229-0.442-3.333c-0.117-0.341-0.263-0.665-0.419-0.98c0.006-0.025,0.012-0.05,0.018-0.074   c0.205-0.627,8.013,0.944,8.013,0.943c0,0.001-7.668-2.295-7.516-2.962c-0.017,0.071-0.049,0.203-0.083,0.347   c0.191-0.809,0.355-1.634,0.42-2.479l-0.499-0.038l0.5,0.018l0.009-0.255c0.018-0.204,0.013-0.49-0.017-0.874   c-0.051-0.706-0.297-1.585-0.683-2.501c1.073-0.424,2.088-0.782,2.694-0.989c-0.607,0.201-1.63,0.53-2.752,0.849   c-0.035-0.079-0.063-0.157-0.1-0.237c-0.254-0.563-0.566-1.157-0.896-1.786c-0.3-0.571-0.615-1.171-0.915-1.804   c-0.335-0.708-0.686-1.553-0.842-2.438c0.178-0.231,0.36-0.465,0.546-0.703l0.215-0.275c0.131-0.172,0.268-0.354,0.403-0.534   c-0.067,0.09-0.125,0.169-0.159,0.215c0.205-0.263,1.958,0.721,3.7,1.727c0.038,0.022,0.075,0.044,0.113,0.066   c-0.128,0.011-0.255,0.022-0.384,0.032c-2.111,0.175-4.272,0.101-4.359-0.247c0.025,0.102,0.083,0.333,0.134,0.54   c0.068,0.202,0.127,0.378,0.127,0.378c0,0,0.055,0.192,0.145,0.399c0.086,0.208,0.183,0.442,0.224,0.54   c-0.141-0.33,1.783-0.981,3.805-1.384c0.187-0.039,0.373-0.075,0.559-0.111c1.603,0.941,3.076,1.856,3.076,1.856   s-1.146-0.901-2.433-1.977c0.953-0.172,1.806-0.301,2.335-0.376c-0.545,0.072-1.438,0.183-2.45,0.28   c-0.184-0.154-0.371-0.312-0.556-0.47c-1.533-1.31-3.055-2.611-2.877-2.904c-0.113,0.194-0.548,0.824-0.548,0.824   s-0.063,0.084-0.147,0.198c0.624-0.859,1.229-1.81,1.604-2.901c0.115-0.372,0.2-0.745,0.264-1.119   c0.197-0.164,0.401-0.343,0.592-0.5c0.534-0.438,1.037-0.851,1.478-1.257c-0.062,0.057-0.123,0.113-0.158,0.142   c0.261-0.227,1.826,1.032,3.488,2.207C31.376,45.616,33,46.806,33,46.806s-1.356-1.475-2.717-2.955   c-1.335-1.496-2.727-2.944-2.51-3.227c-0.077,0.09-0.233,0.309-0.396,0.484c-0.131,0.142-0.246,0.265-0.286,0.308   c0.556-0.586,0.996-1.173,1.266-1.701c0.177-0.342,0.293-0.604,0.349-0.777l0.1-0.264l-0.468-0.177l0.474,0.16   c0.113-0.336,0.207-0.677,0.291-1.019c1.148,0.297,2.207,0.616,2.819,0.806c-0.609-0.195-1.659-0.541-2.786-0.956   c0.197-0.84,0.33-1.688,0.454-2.518c0.065-0.435,0.13-0.869,0.205-1.298c0.183-1.014,0.39-1.996,0.774-2.84   c0.133-0.04,0.267-0.079,0.401-0.118c0.475,0.155,1.43,0.782,2.457,1.587c0.243,0.503,0.498,1.055,0.751,1.616   c0.825,1.834,1.594,3.686,1.594,3.686s-0.548-1.927-1.042-3.877c-0.037-0.147-0.073-0.293-0.109-0.439   c1.067,0.912,2.045,1.825,2.55,2.306c-0.542-0.524-1.608-1.572-2.643-2.683c-0.404-1.648-0.722-3.1-0.455-3.218   c-0.079,0.038-0.238,0.1-0.402,0.162c0.774-0.298,1.529-0.662,2.231-1.155c0.294-0.222,0.562-0.469,0.821-0.721   c0.172-0.011,0.347-0.025,0.518-0.035c0.398-0.024,0.796-0.048,1.191-0.079c1.158-0.085,2.501-0.248,3.75-0.77   c-0.135,0.063-0.258,0.115-0.329,0.133c0.337-0.117,1.432,1.565,2.603,3.202c1.151,1.653,2.299,3.299,2.299,3.299   s-0.813-1.84-1.628-3.687c-0.792-1.865-1.642-3.687-1.367-3.913c-0.174,0.162-0.881,0.613-0.881,0.613s-0.222,0.119-0.464,0.241   c0.665-0.339,1.261-0.771,1.812-1.242c0.743,0.912,1.404,1.788,1.785,2.304c-0.376-0.518-1.012-1.412-1.67-2.404   c0.358-0.313,0.703-0.634,1.028-0.959l0,0c0,0,0,0,0.001-0.001l0,0l0,0c0.266-0.264,0.528-0.533,0.791-0.801   c0.595-0.609,1.209-1.24,1.864-1.798c0.468-0.409,0.923-0.724,1.37-0.974c0.162,0.058,0.314,0.108,0.479,0.167l0.752,0.267   c0.216,0.075,0.439,0.147,0.66,0.221c-0.117-0.038-0.22-0.071-0.278-0.089c0.313,0.11-0.049,2.085-0.442,4.061   c-0.398,1.972-0.845,3.925-0.845,3.925s0.68-1.886,1.411-3.759c0.419-1.06,0.834-2.101,1.178-2.804   c0.021,0.604,0.024,1.257,0,1.913c-0.041,1.491-0.156,2.946-0.226,3.726c0.076-0.777,0.231-2.221,0.456-3.659   c0.153-1.04,0.367-2.062,0.583-2.811c0.611,0.129,1.236,0.225,1.887,0.234c0.357-0.005,0.707-0.039,1.054-0.085   c0.131,0.083,0.265,0.16,0.396,0.244c0.701,0.446,1.426,0.908,2.17,1.299c1.287,0.728,2.658,1.106,3.982,1.105   c0.163,0,0.563-0.005,0.725-0.017C63.479,25.041,63,25.017,64,25.007c0,0.005,0,0.01,0,0.016c-1,0.007-0.405,0.014-0.453,0.018   c0.073-0.006,0.033,0.088,0.114,0.232c0.064,1.096,0.03,2.097,0.04,2.689c-0.004-0.542-0.033-1.431-0.008-2.435   c0.287,0.696,0.592,2.052,0.904,3.417c0.434,1.961,0.802,3.93,0.802,3.93s-0.137-1.999-0.205-4.006   c-0.06-2.005-0.111-4.026,0.246-4.079c-0.114,0.02-0.384,0.058-0.618,0.09c0.487-0.068,0.97-0.146,1.444-0.226   c0.409-0.068,0.817-0.137,1.228-0.197l0,0c1.066-0.148,2.059-0.255,2.965-0.155c0.141,0.204,0.28,0.409,0.42,0.615   c0.185,0.273,0.372,0.548,0.563,0.822c-0.023-0.032-0.044-0.061-0.059-0.082c0.188,0.275-1.283,1.645-2.776,2.995   c-1.494,1.345-3.023,2.642-3.023,2.642s1.663-1.114,3.373-2.176c1.716-1.06,3.419-2.11,3.643-1.854   c-0.054-0.058-0.148-0.175-0.248-0.299c0.338,0.417,0.714,0.807,1.114,1.177c-0.572,0.593-1.44,1.345-2.357,2.03   c-1.125,0.854-2.267,1.628-2.885,2.038c0.621-0.403,1.779-1.14,2.981-1.819c1.259-0.725,2.553-1.321,3.24-1.481   c0.209,0.132,0.418,0.264,0.634,0.378c0.1,0.248,0.198,0.497,0.296,0.747c0.57,1.463,1.159,2.977,2.267,4.233   c0.567,0.578,1.204,1.043,1.868,1.458c-0.633,0.99-1.257,1.891-1.629,2.417c0.375-0.52,1.021-1.4,1.755-2.332   c0.638,0.389,1.3,0.725,1.958,1.051c0.331,0.167-0.324,2.074-1.214,3.864c-0.193,0.402-0.394,0.797-0.588,1.174   c-1.296,0.128-2.306,0.213-2.306,0.213s0.928,0.033,2.146,0.093c-0.61,1.164-1.126,2.055-1.126,2.055c0,0,0.527-0.912,1.24-2.049   c0.549,0.027,1.146,0.059,1.751,0.097c2.012,0.134,4.005,0.269,4.042,0.607c-0.032-0.22-0.056-0.986-0.055-0.986   c-0.001,0-0.012-0.815-0.001-1.029c-0.009,0.332-2,0.592-4.001,0.821c-0.522,0.059-1.043,0.113-1.53,0.162   c0.215-0.338,0.438-0.687,0.671-1.036c1.104-1.68,2.436-3.252,2.75-3.078c-0.176-0.092-0.769-0.402-0.835-0.437   c0.922,0.462,1.797,0.934,2.586,1.547v0c0.128,0.101,0.264,0.218,0.398,0.343c-0.005,0.204-0.007,0.396-0.013,0.605l-0.019,0.668   c-0.032,1.451-0.025,2.989,0.432,4.468c0.116,0.338,0.262,0.661,0.417,0.976c-0.007,0.027-0.013,0.054-0.02,0.082   c-0.226,0.62-8.009-0.946-8.009-0.946c0,0,7.668,2.295,7.516,2.963c0.009-0.036,0.021-0.091,0.036-0.151   c-0.268,1.165-0.46,2.362-0.355,3.613c0.108,0.818,0.354,1.585,0.665,2.322c-1.072,0.423-2.085,0.78-2.689,0.987   c0.606-0.201,1.631-0.53,2.753-0.85c0.29,0.668,0.626,1.315,0.961,1.949c0.167,0.316,0.334,0.631,0.493,0.949   c0.505,0.997,1.084,2.162,1.295,3.374C88.802,60.469,88.614,60.71,88.424,60.954z M77.639,79.696L77.639,79.696   c-0.013,0.004-0.025,0.008-0.038,0.012C77.614,79.703,77.626,79.7,77.639,79.696z M77.502,79.739   c-0.363,0.114-0.726,0.237-1.084,0.372c0.224-0.083,0.433-0.158,0.433-0.157C76.851,79.954,77.208,79.834,77.502,79.739z    M67.73,82.936c-0.365,0.176-0.708,0.38-1.035,0.603c0.219-0.147,0.429-0.282,0.429-0.282L67.73,82.936z M57.754,87.938   c0.148,0.042,0.26,0.074,0.26,0.074s0.082,0.026,0.195,0.063c-0.149-0.046-0.303-0.085-0.455-0.128   C57.754,87.943,57.754,87.94,57.754,87.938z M52.292,87.737c0.073,0.046,0.147,0.092,0.216,0.135   c-0.275,0.072-0.549,0.146-0.817,0.23C51.971,87.83,52.188,87.683,52.292,87.737z M50.734,86.835   c0.004,0.002,0.011,0.005,0.015,0.007c0.013,0.007,0.022,0.014,0.036,0.021C50.768,86.853,50.751,86.844,50.734,86.835z    M51.83,87.452c0.029,0.018,0.057,0.033,0.085,0.051C51.886,87.485,51.858,87.469,51.83,87.452z M46.232,84.996   c-0.226,0.02-0.453,0.045-0.68,0.073c0.018-0.002,0.031-0.004,0.031-0.004s0.215-0.025,0.46-0.054   C46.105,85.007,46.17,85.001,46.232,84.996z M37.734,83.144c0.148,0.188,0.283,0.363,0.283,0.363s0.115,0.161,0.248,0.345   C38.093,83.613,37.918,83.375,37.734,83.144z M32.212,77.194c-0.025-0.039-0.051-0.077-0.074-0.112   C32.163,77.119,32.188,77.156,32.212,77.194z M31.691,76.499l-0.062-0.075l-0.081-0.079c0.024,0.025,0.054,0.045,0.078,0.07   C31.65,76.441,31.668,76.472,31.691,76.499z M24.518,69.1c0.009-0.332,2-0.592,4.001-0.821c0.523-0.059,1.043-0.113,1.53-0.162   c-0.214,0.339-0.439,0.688-0.671,1.037c-1.102,1.676-2.429,3.244-2.747,3.078c-0.777-0.416-1.53-0.87-2.152-1.447   c0.005-0.206,0.007-0.401,0.013-0.613l0.019-0.668c0.008-0.375,0.013-0.747,0.01-1.118C24.522,68.639,24.523,68.974,24.518,69.1z    M27.063,72.459c-0.083-0.043-0.166-0.086-0.249-0.13C26.892,72.369,26.977,72.414,27.063,72.459z M23.781,63.56   c0.057-0.222,0.114-0.446,0.17-0.672c-0.01,0.043-0.018,0.074-0.018,0.074s-0.081,0.315-0.155,0.605   C23.779,63.564,23.78,63.563,23.781,63.56z M22.79,56.307c-0.025-0.058-0.049-0.111-0.072-0.161   c0.011,0.023,0.024,0.049,0.035,0.072C22.767,56.248,22.777,56.276,22.79,56.307C22.79,56.307,22.79,56.307,22.79,56.307z    M23.076,57.003c-0.022-0.063-0.036-0.101-0.042-0.116C23.05,56.926,23.062,56.964,23.076,57.003z M24.51,40.494l-0.019-0.667   c-0.028-0.996-0.046-1.927-0.003-2.764c0.048-0.304,1.797-0.1,3.642,0.337c-0.078,0.317-0.165,0.631-0.268,0.938l-0.102,0.27   c-0.051,0.157-0.153,0.376-0.295,0.651c-0.309,0.604-0.922,1.347-1.686,2.043c-0.387,0.358-0.827,0.722-1.289,1.101   C24.522,41.772,24.524,41.137,24.51,40.494z M28.399,36.072c0.038-0.229,0.083-0.499,0.105-0.637   C28.472,35.647,28.436,35.859,28.399,36.072z M27.048,41.461c-0.046,0.049-0.169,0.177-0.317,0.315   c-0.084,0.082-0.17,0.163-0.248,0.236C26.682,41.83,26.871,41.646,27.048,41.461z M32.356,30.306   C32.356,30.306,32.355,30.306,32.356,30.306c0.021-0.007,0.042-0.013,0.063-0.02C32.396,30.294,32.377,30.3,32.356,30.306z    M32.48,30.267c0.367-0.115,0.732-0.239,1.094-0.375c-0.221,0.083-0.425,0.156-0.425,0.155   C33.149,30.047,32.777,30.172,32.48,30.267z M46.624,22c0.187-0.171,0.352-0.323,0.352-0.323s0.149-0.147,0.334-0.298   c0.002-0.002,0.005-0.004,0.008-0.006c-0.306,0.264-0.601,0.539-0.889,0.819C46.494,22.128,46.559,22.064,46.624,22z    M52.246,22.063c-0.148-0.042-0.26-0.074-0.26-0.074s-0.085-0.027-0.203-0.065c0.152,0.046,0.308,0.087,0.462,0.13   C52.246,22.056,52.246,22.06,52.246,22.063z M57.705,22.262c-0.071-0.045-0.143-0.089-0.214-0.134   c0.274-0.072,0.549-0.146,0.816-0.23C58.026,22.171,57.809,22.32,57.705,22.262z M59.151,23.103   c-0.016-0.008-0.03-0.014-0.046-0.022c-0.033-0.017-0.064-0.038-0.098-0.056C59.057,23.051,59.104,23.077,59.151,23.103z    M58.117,22.516c-0.055-0.033-0.109-0.065-0.163-0.098C58.006,22.449,58.061,22.482,58.117,22.516z M64.643,24.903   c-0.131,0.018-0.227,0.03-0.227,0.03s-0.215,0.025-0.459,0.053c-0.093,0.007-0.187,0.015-0.277,0.023c0-0.006,0-0.012,0-0.018   C64.002,24.966,64.324,24.945,64.643,24.903z M71.735,26.148c0.173,0.24,0.348,0.479,0.532,0.712   c-0.148-0.189-0.285-0.367-0.285-0.367S71.867,26.332,71.735,26.148z M77.688,32.653c0.021,0.034,0.044,0.068,0.066,0.102   C77.731,32.721,77.709,32.688,77.688,32.653z M78.319,33.515l0.05,0.061l0.071,0.069c-0.021-0.021-0.047-0.038-0.068-0.06   C78.353,33.563,78.339,33.537,78.319,33.515z M85.432,38.486l0.108-0.14c0,0,0,0.001,0,0.001L85.432,38.486z M86.726,52.417   c0.009,0.027,0.019,0.056,0.027,0.084C86.744,52.473,86.734,52.445,86.726,52.417z M86.207,46.489   c-0.062,0.235-0.12,0.474-0.18,0.711c0.023-0.096,0.039-0.163,0.039-0.163s0.077-0.3,0.148-0.583   C86.212,46.466,86.21,46.478,86.207,46.489z M87.099,53.445c-0.013-0.029-0.021-0.06-0.033-0.089   c0.012,0.027,0.024,0.058,0.037,0.087C87.102,53.443,87.1,53.444,87.099,53.445z M88.349,47.287   c0.086,0.116,0.196,0.266,0.292,0.396C88.542,47.552,88.446,47.422,88.349,47.287z M87.867,46.595   c-0.021-0.031-0.041-0.061-0.062-0.092C87.825,46.532,87.847,46.563,87.867,46.595z M87.715,40.831c0,0,0.026,0.116,0.06,0.273   c-0.024-0.12-0.054-0.237-0.088-0.352C87.703,40.798,87.715,40.831,87.715,40.831z M87.42,40.082   c-0.028-0.057-0.058-0.112-0.088-0.167C87.361,39.967,87.384,40.014,87.42,40.082z M86.504,44.131   C86.235,42.967,86,41.758,86,40.52v-0.054c1,0.282,0.387,0.587,0.447,0.919C86.646,42.29,86.671,43.228,86.504,44.131z    M86.467,36.347c0.011,0.095,0.021,0.193,0.028,0.281C86.488,36.532,86.476,36.44,86.467,36.347z M86.338,35.431   c0.039,0.159,0.059,0.303,0.067,0.381c-0.021-0.14-0.047-0.274-0.073-0.408C86.334,35.412,86.336,35.422,86.338,35.431z    M85.417,33.378l-0.472-0.121l0.004-0.003L85.417,33.378z M84.508,33.521l0.062,0.09c0.076,0.112,0.236,0.347,0.405,0.733   c0.277,0.598,0.471,1.479,0.529,2.422c0.027,0.367,0.03,0.772,0.032,1.183c-1-0.74-2.11-1.297-3.19-1.829   c-0.722-0.356-1.423-0.704-2.08-1.095c1.244-1.521,2.605-2.872,2.875-2.703c-0.077-0.063-0.28-0.163-0.453-0.264   c-0.172-0.103-0.333-0.174-0.333-0.174s-0.681-0.316-0.872-0.376c0.297,0.111-0.448,1.734-1.446,3.369   c-0.5-0.311-0.966-0.661-1.396-1.057c-0.072-0.124,0.104-0.464,0.462-0.916c0.379-0.491,0.957-1.082,1.59-1.677   C82.118,31.696,83.565,32.314,84.508,33.521z M79.718,30.919c0.176,0.054,0.354,0.109,0.534,0.166   c-1.343,0.846-2.583,1.432-2.765,1.208c-0.432-0.766-0.777-1.59-1.099-2.414c0.774,0.294,1.569,0.525,2.352,0.751   C79.067,30.726,79.395,30.82,79.718,30.919z M78.067,29.388c-0.147-0.045-0.291-0.094-0.437-0.141   C77.792,29.3,77.961,29.354,78.067,29.388z M76.896,28.998c-0.064-0.023-0.128-0.046-0.19-0.071   C76.77,28.951,76.833,28.975,76.896,28.998z M73.838,26.632c0.106,0.176,0.188,0.362,0.283,0.544   c0.013,0.045,0.001,0.106-0.035,0.182c-0.811-0.765-1.483-1.686-2.117-2.62c0.04,0.021,0.082,0.035,0.121,0.057   C72.737,25.167,73.325,25.785,73.838,26.632z M71.045,23.389L71.045,23.389c0.017,0.002,0.034,0.005,0.051,0.009   C71.079,23.394,71.063,23.392,71.045,23.389z M71.827,18.043c0.401-0.647,0.803-1.294,1.147-1.851   c-0.297,0.687-0.846,1.955-1.402,3.24c-0.478,1.073-0.93,2.143-1.3,2.882c-0.134-0.176-0.273-0.352-0.417-0.526   C69.665,21.51,70.776,19.79,71.827,18.043z M69.122,20.979c-0.067-0.067-0.138-0.132-0.207-0.197   C69.003,20.86,69.074,20.931,69.122,20.979z M65.401,20.108c0.407,0.036,0.678,0.116,0.809,0.154l0.09-0.006l-0.009,0.025   c1.455,0.501,2.525,1.736,3.4,2.932c-0.03,0.021-0.063,0.05-0.088,0.053c-0.807,0.006-1.584,0.108-2.25,0.2l0.068,0.495   l-0.072-0.495c-0.417,0.061-0.832,0.13-1.248,0.2c-0.777,0.13-1.576,0.245-2.377,0.317c0.105-1.958,0.402-3.838,0.72-3.867   c-0.1,0.002-0.322,0.037-0.521,0.059c-0.199,0.018-0.37,0.06-0.37,0.06s-0.425,0.087-0.713,0.157   c0.027-0.007,0.06-0.019,0.087-0.026C63.84,20.128,64.738,20.034,65.401,20.108z M60.125,21.277   c0.896-0.319,1.734-0.609,2.509-0.823c0.305-0.052,0.656,1.668,0.817,3.556c-0.137,0.01-0.273,0.033-0.41,0.038   c-1.182,0.082-2.405-0.202-3.587-0.799c-0.168-0.14,0.044-0.901,0.44-1.891L60.125,21.277z M58.4,20.815   c-0.144,0.047-0.286,0.094-0.432,0.139C58.092,20.914,58.255,20.862,58.4,20.815z M51.035,20.522   c1.236-0.123,2.448,0.39,3.437,0.933c-0.335-0.028-0.667-0.073-0.996-0.138c0.092-0.165,0.178-0.254,0.251-0.22   c-0.185-0.104-0.892-0.341-0.892-0.341c0,0-0.773-0.194-0.99-0.188c0.089,0.007,0.168,0.152,0.234,0.398   c-0.381-0.117-0.758-0.241-1.125-0.369l-0.099-0.035C50.915,20.553,50.976,20.53,51.035,20.522z M47.464,21.25   c0.133-0.111,0.26-0.216,0.325-0.271c-0.124,0.105-0.449-0.177-0.88-0.65c0.057,0.014,0.112,0.023,0.168,0.038   c0.345,0.087,0.718,0.205,1.095,0.327C47.938,20.862,47.702,21.047,47.464,21.25z M46.93,19.305   c0.074,0.019,0.147,0.037,0.22,0.055c-0.134-0.033-0.266-0.063-0.397-0.089C46.808,19.282,46.867,19.293,46.93,19.305z    M46.465,19.213c-0.153-0.027-0.302-0.046-0.45-0.065c0.02,0.002,0.04,0.004,0.059,0.006   C46.242,19.168,46.391,19.197,46.465,19.213z M43.836,19.385L43.57,19.8l-0.002-0.005L43.836,19.385z M39.12,24.919   c0.198-0.294,0.396-0.588,0.599-0.877c0.964-1.381,2.164-3.092,3.97-3.75l0.103-0.03c0.13-0.038,0.401-0.118,0.821-0.155   c0.186-0.021,0.396-0.025,0.616-0.019c0.63,1.213,1.109,2.196,0.927,2.373c0.022-0.021,0.067-0.066,0.102-0.1   c-0.276,0.273-0.548,0.549-0.814,0.821c-0.259,0.265-0.518,0.53-0.78,0.791l0.352,0.355l-0.354-0.354   c-0.278,0.278-0.571,0.553-0.872,0.821c-1.056-1.658-1.915-3.376-1.668-3.578c-0.084,0.053-0.243,0.214-0.392,0.347   c-0.151,0.132-0.27,0.262-0.27,0.262s-0.513,0.548-0.629,0.712c0.198-0.249,1.512,0.974,2.754,2.436   c-0.535,0.458-1.104,0.877-1.728,1.178c-1.116,0.483-2.341,0.629-3.502,0.715c-0.22,0.017-0.44,0.03-0.661,0.044   C38.208,26.27,38.668,25.589,39.12,24.919z M37.764,25.131c-0.102,0.146-0.207,0.289-0.311,0.434   C37.567,25.405,37.69,25.234,37.764,25.131z M36.282,27.005c0,0.001-0.001,0.001-0.002,0.002c-0.077,0.005-0.153,0.009-0.23,0.016   C36.136,27.016,36.214,27.01,36.282,27.005z M34.725,28.169c0.048-0.007,0.099-0.01,0.147-0.016   c-0.921,0.554-1.949,0.935-2.995,1.251c-0.019-0.087-0.021-0.157,0.017-0.187l-0.306,0.239l-0.043,0.046   c-0.032,0.009-0.063,0.019-0.094,0.028c0.034-0.034,0.062-0.072,0.097-0.104C32.285,28.774,33.323,28.363,34.725,28.169z    M27.739,30.74c-0.057,0.024-0.113,0.05-0.169,0.075C27.627,30.789,27.684,30.764,27.739,30.74z M26.706,31.238   c0.158-0.097,0.308-0.168,0.367-0.195c-0.14,0.07-0.277,0.146-0.414,0.222C26.675,31.255,26.69,31.247,26.706,31.238z    M25.031,34.332c0.164-0.377,0.324-0.611,0.401-0.723l0.019-0.076l0.017,0.014c0.931-1.234,2.421-1.856,3.883-2.333   c-0.24,0.725-0.401,1.497-0.544,2.288c-0.075,0.433-0.14,0.868-0.206,1.304c0.03-0.195,0.06-0.391,0.074-0.485   c-0.054,0.356-1.843,0.333-3.721,0.21C24.981,34.465,25.003,34.392,25.031,34.332z M28.345,36.38   c-0.046,0.252-0.1,0.502-0.156,0.751c-1.827-0.71-3.525-1.583-3.449-1.892c-0.034,0.094-0.067,0.317-0.11,0.513   c-0.044,0.196-0.061,0.371-0.061,0.371s-0.05,0.419-0.074,0.714c0.001-0.024,0-0.054,0.002-0.079   c0.039-0.62,0.141-1.207,0.285-1.716C26.633,35.501,28.391,36.03,28.345,36.38z M24,41.582c0,0,0-0.001,0-0.001   C24,41.581,24,41.581,24,41.582z M18.367,42.643c-0.643-0.315-1.28-0.628-1.843-0.904c0.768,0.043,1.873,0.115,2.988,0.22   c1.973,0.18,3.954,0.534,3.95,0.863c-0.015,0.167-0.036,0.333-0.058,0.498c-0.228,0.192-0.448,0.367-0.677,0.572   c-0.125,0.111-0.253,0.229-0.382,0.351C22.083,44.482,20.238,43.531,18.367,42.643z M21.288,45.37   c0.035-0.04,0.068-0.078,0.1-0.115c-0.061,0.073-0.121,0.147-0.18,0.223C21.235,45.441,21.261,45.406,21.288,45.37z M21.814,44.771   c-0.056,0.059-0.11,0.12-0.166,0.181C21.687,44.909,21.743,44.846,21.814,44.771z M20.996,48.102   c0.271-1.246,1.131-2.268,1.966-3.067c-0.487,1.168-1.265,2.214-1.975,3.141C20.991,48.15,20.991,48.126,20.996,48.102    M18.783,51.181c-0.009,0.014-0.019,0.028-0.027,0.042C18.766,51.206,18.773,51.194,18.783,51.181z M18.663,51.377   c-0.042,0.068-0.078,0.137-0.117,0.205C18.584,51.513,18.624,51.443,18.663,51.377z M18.268,52.093   c-0.041,0.081-0.076,0.16-0.113,0.239C18.197,52.236,18.237,52.153,18.268,52.093z M18.501,55l0.026-0.361   c0.009-0.136,0.018-0.312,0.08-0.555c0.121-0.662,0.471-1.492,0.964-2.282c0.193-0.317,0.422-0.649,0.664-0.986   c0.196,0.663,0.456,1.282,0.713,1.825c0.306,0.646,0.627,1.259,0.934,1.841c0.277,0.527,0.534,1.026,0.761,1.507   c0.043,0.095-0.077,0.249-0.297,0.434c-1.735,0.432-3.355,0.66-3.456,0.384c0.061,0.188,0.366,0.821,0.366,0.821   s0.1,0.184,0.212,0.381c-0.001,0.001-0.003,0.002-0.004,0.002c-0.433-0.731-0.747-1.488-0.865-2.133   c-0.054-0.205-0.063-0.381-0.072-0.517L18.501,55z M19.608,58.25c0.013,0.021,0.024,0.04,0.036,0.06   c-0.012-0.02-0.026-0.04-0.038-0.059C19.607,58.251,19.607,58.25,19.608,58.25z M19.735,58.449   c-0.04-0.061,0.025-0.157,0.146-0.272c1.721-0.443,3.342-0.653,3.452-0.354c0.088,0.338,0.154,0.658,0.173,0.932   c0.023,0.307,0.032,0.548,0.016,0.736l-0.01,0.265c-0.079,1.026-0.319,2.054-0.575,3.059c-0.379-0.574-0.785-1.111-1.17-1.615   l-0.194-0.248C20.885,60.067,20.239,59.231,19.735,58.449z M21.649,62.708c-0.087-0.117-0.197-0.265-0.292-0.395   C21.455,62.444,21.551,62.573,21.649,62.708z M22.134,63.405c0.02,0.03,0.039,0.059,0.059,0.089   C22.174,63.466,22.153,63.436,22.134,63.405z M22.447,69.616c-0.086-0.238-0.162-0.447-0.162-0.447s-0.003-0.013-0.005-0.023   c0.051,0.181,0.119,0.351,0.188,0.52C22.463,69.647,22.452,69.634,22.447,69.616z M22.163,68.578   c0.031,0.183,0.063,0.364,0.111,0.537C22.251,69.019,22.203,68.797,22.163,68.578z M23.248,65.855   c0.271,1.165,0.289,2.38,0.262,3.624l-0.001,0.059c-0.277-0.547-0.431-1.197-0.435-1.917C23.068,67.007,23.148,66.4,23.248,65.855z    M23.535,73.672c-0.011-0.104-0.022-0.21-0.03-0.306C23.512,73.471,23.525,73.569,23.535,73.672z M23.662,74.568   c-0.04-0.162-0.059-0.31-0.068-0.386c0.022,0.146,0.049,0.285,0.076,0.425C23.667,74.595,23.665,74.581,23.662,74.568z    M24.583,76.621l0.469,0.121l-0.004,0.003L24.583,76.621z M25.493,76.479l-0.062-0.09c-0.077-0.113-0.237-0.347-0.405-0.733   c-0.278-0.6-0.471-1.479-0.53-2.421c-0.026-0.363-0.03-0.765-0.031-1.17c0.793,0.589,1.682,1.05,2.556,1.498l0.995,0.503   c0.577,0.288,1.158,0.585,1.716,0.912c-1.243,1.52-2.603,2.869-2.873,2.699c0.077,0.063,0.28,0.162,0.453,0.264   c0.172,0.103,0.333,0.174,0.333,0.174s0.511,0.237,0.772,0.34C27.301,78.021,26.24,77.435,25.493,76.479z M28.452,78.468   c0.024,0.01,0.049,0.019,0.066,0.024c-0.298-0.112,0.451-1.74,1.451-3.378c0.503,0.309,0.967,0.662,1.388,1.059   c0.082,0.118-0.096,0.463-0.457,0.919c-0.378,0.492-0.958,1.084-1.592,1.681C29.021,78.678,28.735,78.578,28.452,78.468z    M30.282,79.081c-0.175-0.054-0.354-0.109-0.533-0.165c1.354-0.854,2.607-1.446,2.771-1.205c0.331,0.59,0.61,1.211,0.858,1.823l0,0   l0.232,0.586c-0.776-0.295-1.573-0.526-2.357-0.753C30.928,79.273,30.604,79.18,30.282,79.081z M31.912,80.605   c0.154,0.047,0.306,0.098,0.459,0.147C32.198,80.697,32.017,80.639,31.912,80.605z M33.1,81c0.065,0.024,0.13,0.048,0.194,0.072   C33.229,81.048,33.163,81.023,33.1,81z M35.724,82.55c0.061,0.121,0.115,0.229,0.146,0.291c-0.021-0.041-0.043-0.071-0.064-0.113   C35.774,82.665,35.754,82.612,35.724,82.55z M36.767,84.218c-0.319-0.374-0.604-0.82-0.892-1.368   c-0.022-0.046-0.003-0.12,0.038-0.208c0.808,0.761,1.479,1.679,2.11,2.608C37.563,85.015,37.133,84.668,36.767,84.218z    M38.913,86.604c-0.026-0.005-0.049-0.009-0.076-0.014c-0.132-0.017-0.261-0.056-0.375-0.093   C38.61,86.54,38.761,86.573,38.913,86.604z M38.173,91.956c-0.401,0.646-0.801,1.291-1.146,1.848   c0.298-0.688,0.846-1.953,1.401-3.237c0.478-1.073,0.93-2.143,1.3-2.882c0.133,0.176,0.273,0.352,0.417,0.525   C40.335,88.49,39.224,90.21,38.173,91.956z M40.872,89.013c0.076,0.076,0.155,0.149,0.233,0.224   C41.004,89.147,40.922,89.066,40.872,89.013z M44.599,89.892c-0.409-0.036-0.679-0.116-0.809-0.154l-0.09,0.007l0.009-0.025   c-1.455-0.502-2.525-1.737-3.4-2.933c0.028-0.021,0.058-0.046,0.082-0.05c0.772-0.004,1.541-0.098,2.259-0.204   c0.432-0.063,0.862-0.135,1.292-0.207c0.804-0.134,1.576-0.261,2.334-0.329c-0.104,1.965-0.403,3.857-0.721,3.887   c0.099-0.002,0.322-0.036,0.521-0.059c0.2-0.019,0.371-0.06,0.371-0.06c0-0.001,0.439-0.091,0.727-0.161   c-0.033,0.009-0.069,0.022-0.102,0.03C46.162,89.872,45.266,89.97,44.599,89.892z M49.881,88.721   c-0.897,0.32-1.739,0.611-2.515,0.825c-0.305,0.055-0.658-1.675-0.818-3.568c0.205-0.015,0.409-0.028,0.613-0.031   c1.349-0.061,2.547,0.374,3.381,0.796c0.179,0.128-0.036,0.899-0.438,1.899L49.881,88.721z M51.64,89.172   c0.126-0.042,0.252-0.083,0.38-0.122C51.909,89.085,51.771,89.13,51.64,89.172z M58.962,89.478   c-1.165,0.122-2.262-0.306-3.412-0.932c0.328,0.029,0.652,0.073,0.974,0.137c-0.091,0.164-0.177,0.253-0.25,0.219   c0.185,0.104,0.892,0.341,0.892,0.341s0.772,0.194,0.99,0.188c-0.09-0.007-0.168-0.151-0.234-0.396   c0.381,0.116,0.758,0.24,1.125,0.368l0.105,0.037C59.089,89.45,59.024,89.47,58.962,89.478z M61.867,89.278   c0.395-0.284,0.762-0.597,1.108-0.91c-0.051,0.049-0.147,0.139-0.285,0.252c-0.184,0.152-0.39,0.323-0.48,0.398   c0.124-0.104,0.449,0.178,0.881,0.65c-0.057-0.014-0.112-0.023-0.169-0.038c-0.346-0.087-0.718-0.204-1.096-0.326   C61.84,89.295,61.854,89.288,61.867,89.278z M63.483,90.774c0,0-0.193-0.037-0.414-0.08c-0.103-0.025-0.209-0.052-0.307-0.076   c0.356,0.091,0.708,0.164,1.047,0.214C63.626,90.809,63.483,90.774,63.483,90.774z M63.927,90.845c-0.002,0-0.003,0-0.005-0.001   c0.063,0.009,0.119,0.008,0.182,0.014c0.002,0.003,0.004,0.006,0.006,0.008C64.048,90.858,63.988,90.851,63.927,90.845z    M70.88,85.081c-0.198,0.294-0.396,0.588-0.599,0.877c-0.968,1.387-2.172,3.105-3.962,3.747l-0.109,0.032   c-0.13,0.038-0.399,0.118-0.822,0.155c-0.187,0.021-0.396,0.024-0.616,0.02c-0.63-1.214-1.109-2.197-0.927-2.374   c-0.085,0.084-0.288,0.282-0.469,0.461c-0.085,0.078-0.163,0.149-0.226,0.207c0.311-0.289,0.608-0.579,0.876-0.85   c0.238-0.237,0.475-0.479,0.712-0.723c0.476-0.488,0.96-0.979,1.469-1.434c1.058,1.659,1.919,3.38,1.671,3.582   c0.085-0.053,0.243-0.215,0.393-0.348c0.151-0.132,0.27-0.262,0.27-0.262s0.513-0.548,0.63-0.712   c-0.198,0.249-1.515-0.977-2.758-2.44c0.539-0.462,1.107-0.875,1.731-1.175c1.313-0.547,2.705-0.673,4.165-0.762   C71.793,83.728,71.332,84.41,70.88,85.081z M72.232,84.874c0.104-0.149,0.21-0.294,0.316-0.44   C72.433,84.595,72.307,84.771,72.232,84.874z M74.144,82.961c0.116-0.01,0.232-0.02,0.35-0.03   C74.394,82.939,74.271,82.95,74.144,82.961z M76.45,81.594L76.45,81.594c-0.435,0.115-0.876,0.191-1.321,0.253   c0.924-0.555,1.953-0.936,3.001-1.253c0.02,0.089,0.02,0.158-0.022,0.188c0.062-0.06,0.207-0.158,0.334-0.281   c0.029-0.009,0.059-0.017,0.088-0.025C77.905,81.08,77.093,81.42,76.45,81.594z M82.235,79.271c0.079-0.033,0.157-0.07,0.236-0.104   C82.393,79.201,82.312,79.237,82.235,79.271z M83.294,78.762c-0.176,0.108-0.338,0.183-0.38,0.201   c0.159-0.079,0.315-0.164,0.47-0.253C83.354,78.728,83.323,78.744,83.294,78.762z M84.969,75.668   c-0.165,0.377-0.325,0.61-0.401,0.723l-0.02,0.078l-0.018-0.014c-0.931,1.232-2.418,1.854-3.878,2.331   c0.188-0.56,0.318-1.123,0.423-1.646c0.13-0.635,0.225-1.281,0.32-1.928c-0.028,0.189-0.057,0.377-0.07,0.469   c0.054-0.356,1.843-0.334,3.72-0.21C85.02,75.535,84.996,75.608,84.969,75.668z M81.655,73.62c0.046-0.254,0.092-0.508,0.148-0.755   c1.83,0.71,3.532,1.584,3.456,1.894c0.034-0.094,0.067-0.316,0.11-0.513c0.045-0.195,0.061-0.37,0.061-0.37   s0.052-0.434,0.075-0.729c-0.001,0.029,0,0.064-0.002,0.093c-0.039,0.619-0.142,1.207-0.285,1.716   C83.367,74.498,81.61,73.97,81.655,73.62z M86.518,67.366c-0.001,0.008-0.002,0.015-0.002,0.022   C86.516,67.381,86.517,67.373,86.518,67.366z M86,68.396c0,0.021,0,0.043,0,0.064C86,68.438,86,68.417,86,68.396z M91.634,67.357   c0.642,0.314,1.278,0.627,1.842,0.903c-0.768-0.043-1.872-0.114-2.986-0.219c-1.975-0.181-3.956-0.534-3.95-0.863   c0.014-0.162,0.034-0.321,0.056-0.481c0.365-0.309,0.758-0.65,1.15-1.027c-0.03,0.03-0.071,0.07-0.091,0.09   C87.912,65.514,89.759,66.468,91.634,67.357z M88.712,64.63c-0.034,0.039-0.066,0.077-0.098,0.113   c0.096-0.116,0.188-0.235,0.277-0.356C88.833,64.466,88.772,64.549,88.712,64.63z M89.764,59.186   c-0.305-1.033-0.78-1.984-1.182-2.778c-0.162-0.322-0.331-0.644-0.502-0.966c-0.249-0.472-0.493-0.952-0.722-1.437   c-0.037-0.095,0.079-0.246,0.296-0.428c1.735-0.431,3.354-0.66,3.456-0.384c-0.061-0.188-0.366-0.821-0.367-0.821   c0,0-0.1-0.184-0.212-0.38c0.002-0.001,0.003-0.001,0.004-0.002c0.433,0.729,0.746,1.485,0.866,2.132   c0.054,0.207,0.063,0.383,0.071,0.52L91.498,55l-0.025,0.359c-0.009,0.137-0.018,0.314-0.08,0.557   c-0.121,0.662-0.472,1.492-0.964,2.283C90.235,58.516,90.006,58.848,89.764,59.186z"/><path d="M78.082,71.556c-0.331-0.106-0.544-0.172-0.544-0.172S77.751,71.452,78.082,71.556z"/><path d="M63.981,81.94c-0.202-0.278-0.333-0.455-0.333-0.455S63.777,81.664,63.981,81.94z"/><path d="M46.358,82.056c-0.003-0.348-0.007-0.57-0.007-0.57S46.353,81.709,46.358,82.056z"/><path d="M32.126,71.853c0.206-0.285,0.335-0.47,0.335-0.47S32.329,71.565,32.126,71.853z"/><path d="M26.515,55.191C26.863,55.076,27.084,55,27.084,55S26.861,55.073,26.515,55.191z"/><path d="M31.92,38.446c0.33,0.105,0.542,0.171,0.542,0.171S32.25,38.548,31.92,38.446z"/><path d="M46.009,28.046c0.208,0.287,0.343,0.468,0.343,0.468S46.219,28.331,46.009,28.046z"/><path d="M63.642,27.961c0.003,0.337,0.007,0.553,0.007,0.553S63.647,28.298,63.642,27.961z"/><path d="M77.88,38.14c-0.209,0.29-0.341,0.477-0.341,0.477S77.674,38.431,77.88,38.14z"/><path d="M83.482,54.81C83.137,54.924,82.916,55,82.916,55S83.139,54.927,83.482,54.81z"/><path d="M72.894,74.466c-0.258-0.25-0.426-0.408-0.426-0.408S72.634,74.219,72.894,74.466z"/><path d="M57.917,81.267c0.035-0.358,0.056-0.59,0.056-0.59S57.949,80.907,57.917,81.267z"/><path d="M41.78,77.788c0.285-0.185,0.466-0.306,0.466-0.306S42.063,77.601,41.78,77.788z"/><path d="M26.047,81.575c-0.228,0.18-0.372,0.295-0.372,0.295S25.814,81.762,26.047,81.575z"/><path d="M16.042,59.358c-0.341,0.119-0.559,0.198-0.559,0.198S15.702,59.481,16.042,59.358z"/><path d="M29.057,49.921c0.34-0.045,0.557-0.076,0.557-0.076S29.395,49.873,29.057,49.921z"/><path d="M37.169,35.594c0.228,0.22,0.363,0.348,0.363,0.348S37.393,35.806,37.169,35.594z"/><path d="M52.082,28.735c-0.035,0.357-0.055,0.587-0.055,0.587S52.05,29.094,52.082,28.735z"/><path d="M68.223,32.209c-0.287,0.186-0.47,0.308-0.47,0.308S67.938,32.398,68.223,32.209z"/><path d="M83.963,28.417c0.223-0.175,0.362-0.288,0.362-0.288S84.19,28.235,83.963,28.417z"/><path d="M80.945,60.079c-0.341,0.045-0.559,0.076-0.559,0.076S80.605,60.127,80.945,60.079z"/><path d="M93.99,50.63c0.321-0.112,0.526-0.187,0.526-0.187S94.311,50.515,93.99,50.63z"/></g><text x="0" y="125" fill="#000000" font-size="5px" font-weight="bold" font-family="'Helvetica Neue', Helvetica, Arial-Unicode, Arial, Sans-serif">Created by Trevor Dsouza</text><text x="0" y="130" fill="#000000" font-size="5px" font-weight="bold" font-family="'Helvetica Neue', Helvetica, Arial-Unicode, Arial, Sans-serif">from the Noun Project</text></svg>